<svg width="192" height="41" viewBox="0 0 192 41" fill="none" xmlns="http://www.w3.org/2000/svg">
<rect width="15.095" height="38.7536" rx="7.5475" transform="matrix(0.847681 0.530507 -0.529332 0.848415 18.4795 0.244141)" fill="#159990"/>
<path d="M29.2709 6.2336C27.1236 2.79182 22.5951 1.74635 19.1563 3.89846V3.89846C15.5865 6.13254 14.618 10.907 17.035 14.3551L18.496 16.4394L22.1045 23.1115L29.1589 34.5161C31.3535 38.0639 36.011 39.1487 39.5472 36.9356V36.9356C43.0739 34.7285 44.1475 30.0779 41.9453 26.5482L29.2709 6.2336Z" fill="#0AD0C3"/>
<path fill-rule="evenodd" clip-rule="evenodd" d="M36.8184 1.70386H21.5719C15.3368 1.70386 12.0059 10.6 12.0059 10.6C12.0059 10.6 14.8785 12.7649 16.4471 14.4365C19.1983 17.3684 21.9986 23.1103 21.9986 23.1103C21.9986 23.1103 25.2871 16.5489 28.1053 12.8241C30.4323 9.74852 34.2533 6.20815 36.8184 3.96399V1.70386Z" fill="url(#paint0_linear_929_10311)"/>
<g filter="url(#filter0_f_929_10311)">
<path d="M22.6621 21.6853L23.4761 20.5983C23.4886 20.5817 23.4995 20.5639 23.5087 20.5453L25.5623 16.4032L27.2712 13.6458C27.2805 13.6307 27.291 13.6164 27.3026 13.603L30.1567 10.2871" stroke="#159990" stroke-width="1.36475" stroke-linecap="round"/>
</g>
<g filter="url(#filter1_f_929_10311)">
<path d="M20.9922 22.2412L19.6043 19.7391L17.3837 16.4031L15.1631 13.901L13.1606 12.1462C13.0348 12.0359 13.0075 11.8508 13.096 11.7089L14.3303 9.73096" stroke="#159990" stroke-width="1.36475" stroke-linecap="round"/>
</g>
<path fill-rule="evenodd" clip-rule="evenodd" d="M36.8184 1.70386H21.5719C15.3368 1.70386 12.0059 10.6 12.0059 10.6C12.0059 10.6 14.8785 12.7649 16.4471 14.4365C19.1983 17.3684 21.9986 23.1103 21.9986 23.1103C21.9986 23.1103 25.2871 16.5489 28.1053 12.8241C30.466 9.70391 34.2662 6.18456 36.8184 3.95643V1.70386Z" fill="url(#paint1_linear_929_10311)"/>
<path fill-rule="evenodd" clip-rule="evenodd" d="M31.158 9.29786L26.415 1.70532H36.844V4.01344C35.2094 5.42126 33.0885 7.32515 31.158 9.29786Z" fill="url(#paint2_linear_929_10311)"/>
<path d="M171.308 14.5245H167.654V30.9559H163.534V14.5245H161.206V11.188H163.534V9.7888C163.534 7.51662 164.131 5.8663 165.325 4.83784C166.543 3.78547 168.442 3.25928 171.021 3.25928V6.66754C169.779 6.66754 168.908 6.90672 168.406 7.38507C167.905 7.83951 167.654 8.64075 167.654 9.7888V11.188H171.308V14.5245Z" fill="#1E5A9F"/>
<path d="M156.372 8.56805C155.631 8.56805 155.011 8.31691 154.509 7.81464C154.008 7.31237 153.757 6.69051 153.757 5.94906C153.757 5.20761 154.008 4.58576 154.509 4.08349C155.011 3.58121 155.631 3.33008 156.372 3.33008C157.088 3.33008 157.697 3.58121 158.199 4.08349C158.7 4.58576 158.951 5.20761 158.951 5.94906C158.951 6.69051 158.7 7.31237 158.199 7.81464C157.697 8.31691 157.088 8.56805 156.372 8.56805ZM158.378 11.187V30.955H154.294V11.187H158.378Z" fill="#1E5A9F"/>
<path d="M129.369 20.9831C129.369 18.998 129.775 17.24 130.587 15.7093C131.423 14.1786 132.545 12.9946 133.954 12.1575C135.387 11.2965 136.975 10.866 138.718 10.866C140.008 10.866 141.274 11.153 142.516 11.727C143.781 12.2771 144.784 13.0186 145.525 13.9513V4.4082H149.644V30.9568H145.525V27.9791C144.856 28.9358 143.924 29.725 142.73 30.3469C141.56 30.9688 140.211 31.2797 138.683 31.2797C136.963 31.2797 135.387 30.8492 133.954 29.9881C132.545 29.1032 131.423 27.8834 130.587 26.3287C129.775 24.7502 129.369 22.9683 129.369 20.9831ZM145.525 21.0549C145.525 19.6916 145.238 18.5077 144.665 17.5031C144.116 16.4986 143.387 15.7332 142.48 15.207C141.572 14.6808 140.593 14.4177 139.542 14.4177C138.492 14.4177 137.512 14.6808 136.605 15.207C135.698 15.7093 134.957 16.4627 134.384 17.4672C133.835 18.4479 133.56 19.6198 133.56 20.9831C133.56 22.3464 133.835 23.5423 134.384 24.5708C134.957 25.5992 135.698 26.3885 136.605 26.9386C137.536 27.4648 138.515 27.7279 139.542 27.7279C140.593 27.7279 141.572 27.4648 142.48 26.9386C143.387 26.4125 144.116 25.6471 144.665 24.6425C145.238 23.6141 145.525 22.4182 145.525 21.0549Z" fill="#1E5A9F"/>
<path d="M121.79 14.0578C122.387 13.0532 123.175 12.2759 124.154 11.7258C125.157 11.1518 126.339 10.8647 127.7 10.8647V15.0982H126.661C125.061 15.0982 123.843 15.5048 123.008 16.318C122.196 17.1312 121.79 18.5423 121.79 20.5514V30.9556H117.706V11.1876H121.79V14.0578Z" fill="#1E5A9F"/>
<path d="M104.145 31.2785C102.283 31.2785 100.599 30.8599 99.0947 30.0228C97.5902 29.1618 96.4081 27.9659 95.5484 26.4351C94.6886 24.8805 94.2588 23.0867 94.2588 21.0537C94.2588 19.0446 94.7006 17.2627 95.5842 15.7081C96.4678 14.1534 97.6737 12.9575 99.2021 12.1204C100.73 11.2833 102.438 10.8647 104.325 10.8647C106.211 10.8647 107.919 11.2833 109.447 12.1204C110.975 12.9575 112.181 14.1534 113.065 15.7081C113.949 17.2627 114.39 19.0446 114.39 21.0537C114.39 23.0628 113.937 24.8446 113.029 26.3993C112.122 27.9539 110.88 29.1618 109.304 30.0228C107.751 30.8599 106.032 31.2785 104.145 31.2785ZM104.145 27.7267C105.196 27.7267 106.175 27.4756 107.083 26.9733C108.014 26.471 108.766 25.7176 109.34 24.7131C109.913 23.7085 110.199 22.4887 110.199 21.0537C110.199 19.6186 109.925 18.4108 109.375 17.4301C108.826 16.4256 108.098 15.6722 107.19 15.1699C106.283 14.6677 105.304 14.4165 104.253 14.4165C103.202 14.4165 102.223 14.6677 101.316 15.1699C100.432 15.6722 99.7275 16.4256 99.2021 17.4301C98.6767 18.4108 98.414 19.6186 98.414 21.0537C98.414 23.1823 98.9514 24.8327 100.026 26.0046C101.125 27.1527 102.498 27.7267 104.145 27.7267Z" fill="#1E5A9F"/>
<path d="M92.666 14.5245H89.0123V30.9559H84.8928V14.5245H82.5645V11.188H84.8928V9.7888C84.8928 7.51662 85.4899 5.8663 86.6839 4.83784C87.9018 3.78547 89.8003 3.25928 92.3795 3.25928V6.66754C91.1377 6.66754 90.266 6.90672 89.7645 7.38507C89.263 7.83951 89.0123 8.64075 89.0123 9.7888V11.188H92.666V14.5245Z" fill="#1E5A9F"/>
<path d="M81.4981 14.5245H77.8443V30.9559H73.7249V14.5245H71.3965V11.188H73.7249V9.7888C73.7249 7.51662 74.3219 5.8663 75.5159 4.83784C76.7338 3.78547 78.6324 3.25928 81.2115 3.25928V6.66754C79.9697 6.66754 79.098 6.90672 78.5966 7.38507C78.0951 7.83951 77.8443 8.64075 77.8443 9.7888V11.188H81.4981V14.5245Z" fill="#1E5A9F"/>
<path d="M48.2988 20.9824C48.2988 18.9972 48.7048 17.2393 49.5167 15.7086C50.3526 14.1778 51.475 12.9939 52.8839 12.1568C54.3168 11.2958 55.8929 10.8652 57.6123 10.8652C59.1646 10.8652 60.5139 11.1762 61.6601 11.798C62.8303 12.396 63.7617 13.1494 64.4542 14.0582V11.1881H68.5736V30.9561H64.4542V28.0142C63.7617 28.947 62.8184 29.7243 61.6243 30.3462C60.4303 30.968 59.0691 31.279 57.5407 31.279C55.8452 31.279 54.2929 30.8484 52.8839 29.9874C51.475 29.1024 50.3526 27.8827 49.5167 26.328C48.7048 24.7494 48.2988 22.9676 48.2988 20.9824ZM64.4542 21.0542C64.4542 19.6909 64.1676 18.5069 63.5945 17.5024C63.0452 16.4978 62.3169 15.7325 61.4094 15.2063C60.5019 14.6801 59.5228 14.417 58.4721 14.417C57.4213 14.417 56.4422 14.6801 55.5347 15.2063C54.6272 15.7086 53.8869 16.462 53.3138 17.4665C52.7645 18.4471 52.4899 19.6191 52.4899 20.9824C52.4899 22.3457 52.7645 23.5416 53.3138 24.5701C53.8869 25.5985 54.6272 26.3878 55.5347 26.9379C56.4661 27.4641 57.4452 27.7272 58.4721 27.7272C59.5228 27.7272 60.5019 27.4641 61.4094 26.9379C62.3169 26.4117 63.0452 25.6463 63.5945 24.6418C64.1676 23.6133 64.4542 22.4175 64.4542 21.0542Z" fill="#1E5A9F"/>
<path d="M177.89 10.8696L183.658 27.2293L181.293 31.7139L173.27 10.8696H177.89ZM173.735 35.3386V31.7151H176.35C176.923 31.7151 177.425 31.6433 177.855 31.4998C178.284 31.3802 178.667 31.1411 179.001 30.7823C179.359 30.4235 179.658 29.8973 179.896 29.2037L187.24 10.8696H191.753L183.085 31.0693C182.44 32.6957 181.628 33.8796 180.649 34.6211C179.67 35.3625 178.452 35.7333 176.995 35.7333C176.374 35.7333 175.789 35.6974 175.24 35.6256C174.714 35.5778 174.213 35.4821 173.735 35.3386Z" fill="#1E5A9F"/>
<defs>
<filter id="filter0_f_929_10311" x="20.9559" y="8.58117" width="10.9065" height="14.8101" filterUnits="userSpaceOnUse" color-interpolation-filters="sRGB">
<feFlood flood-opacity="0" result="BackgroundImageFix"/>
<feBlend mode="normal" in="SourceGraphic" in2="BackgroundImageFix" result="shape"/>
<feGaussianBlur stdDeviation="0.511783" result="effect1_foregroundBlur_929_10311"/>
</filter>
<filter id="filter1_f_929_10311" x="11.3387" y="8.02502" width="11.3596" height="15.9221" filterUnits="userSpaceOnUse" color-interpolation-filters="sRGB">
<feFlood flood-opacity="0" result="BackgroundImageFix"/>
<feBlend mode="normal" in="SourceGraphic" in2="BackgroundImageFix" result="shape"/>
<feGaussianBlur stdDeviation="0.511783" result="effect1_foregroundBlur_929_10311"/>
</filter>
<linearGradient id="paint0_linear_929_10311" x1="13.3935" y1="10.6" x2="37.546" y2="3.39422" gradientUnits="userSpaceOnUse">
<stop stop-color="#1E5A9F"/>
<stop offset="1" stop-color="#1978E6"/>
</linearGradient>
<linearGradient id="paint1_linear_929_10311" x1="13.3935" y1="10.6" x2="37.546" y2="3.39422" gradientUnits="userSpaceOnUse">
<stop stop-color="#1E5A9F"/>
<stop offset="1" stop-color="#1978E6"/>
</linearGradient>
<linearGradient id="paint2_linear_929_10311" x1="12.5626" y1="10.9335" x2="37.6343" y2="3.447" gradientUnits="userSpaceOnUse">
<stop stop-color="#FCC015"/>
<stop offset="1" stop-color="#B68907"/>
</linearGradient>
</defs>
</svg>
